<?xml version="1.0" standalone="no"?><!DOCTYPE svg PUBLIC "-//W3C//DTD SVG 1.1//EN" "http://www.w3.org/Graphics/SVG/1.1/DTD/svg11.dtd"><svg t="1516262428934" class="icon" style="" viewBox="0 0 1024 1024" version="1.1" xmlns="http://www.w3.org/2000/svg" p-id="2699" xmlns:xlink="http://www.w3.org/1999/xlink" width="200" height="200"><defs><style type="text/css"></style></defs><path d="M895.836 537.774h-767.674c-41.116 0-74.565-33.453-74.565-74.565v-155.749c0-41.116 33.45-74.565 74.565-74.565h767.674c41.116 0 74.565 33.45 74.565 74.565v155.749c0 41.113-33.45 74.565-74.565 74.565zM136.449 454.924h751.103v-139.178h-751.103v139.178z" fill="" p-id="2700"></path><path d="M850.87 971.056h-677.74c-41.365 0-75.020-33.45-75.020-74.565v-378.603c0-22.879 18.547-41.425 41.425-41.425s41.425 18.547 41.425 41.425v370.318h662.078v-370.318c0-22.879 18.546-41.425 41.425-41.425s41.425 18.547 41.425 41.425v378.603c0 41.117-33.654 74.565-75.020 74.565zM230.154 304.79c-0.005 0-0.015 0-0.021 0-8.916 0-17.172-2.832-23.918-7.644-47.885-33.718-75.421-78.835-75.421-123.693 0-32.052 14.119-61.589 39.761-83.175 37.994-31.985 99.206-44.414 163.737-33.247 48.46 8.384 94.299 28.967 129.074 57.964 38.882 32.421 60.298 72.23 60.298 112.098 0 22.879-18.547 41.425-41.425 41.425s-41.425-18.547-41.425-41.425c0-31.89-51.596-76.479-120.647-88.425-48.031-8.315-81.872 2.882-96.255 14.992-9.203 7.747-10.268 15.006-10.268 19.793 0 17.019 15.477 38.49 40.394 56.033 18.707 13.172 23.194 39.014 10.023 57.722-8.062 11.456-20.885 17.581-33.904 17.581z" fill="" p-id="2701"></path><path d="M793.846 304.79c-13.021 0-25.842-6.123-33.908-17.58-13.172-18.707-8.684-44.548 10.023-57.722 24.916-17.546 40.396-39.015 40.396-56.033 0-4.788-1.066-12.047-10.267-19.793-14.387-12.11-48.229-23.3-96.259-14.992-69.052 11.946-120.647 56.539-120.647 88.425 0 22.879-18.547 41.425-41.425 41.425s-41.425-18.547-41.425-41.425c0-39.868 21.415-79.678 60.298-112.098 34.778-28.996 80.618-49.581 129.075-57.964 64.524-11.163 125.744 1.262 163.737 33.248 25.639 21.585 39.761 51.124 39.761 83.173 0 44.857-27.536 89.97-75.55 123.777-6.62 4.726-14.875 7.556-23.791 7.556-0.005 0-0.015 0-0.020 0z" fill="" p-id="2702"></path><path d="M512 971.056c-22.879 0-41.425-18.547-41.425-41.425v-693.422c0-22.879 18.547-41.425 41.425-41.425s41.425 18.547 41.425 41.425v693.422c0 22.879-18.547 41.425-41.425 41.425z" fill="" p-id="2703"></path></svg>