<?xml version="1.0" standalone="no"?><!DOCTYPE svg PUBLIC "-//W3C//DTD SVG 1.1//EN" "http://www.w3.org/Graphics/SVG/1.1/DTD/svg11.dtd"><svg t="1516262553379" class="icon" style="" viewBox="0 0 1024 1024" version="1.1" xmlns="http://www.w3.org/2000/svg" p-id="4470" xmlns:xlink="http://www.w3.org/1999/xlink" width="200" height="200"><defs><style type="text/css"></style></defs><path d="M938.666667 554.666667 938.666667 128c0-23.466667-19.2-42.666667-42.666667-42.666667l-85.333333 0L810.666667 64c0-12.8-8.533333-21.333333-21.333333-21.333333s-21.333333 8.533333-21.333333 21.333333l0 21.333333L256 85.333333 256 64c0-12.8-8.533333-21.333333-21.333333-21.333333s-21.333333 8.533333-21.333333 21.333333l0 21.333333L128 85.333333C104.533333 85.333333 85.333333 104.533333 85.333333 128l0 426.666667c-23.466667 0-42.666667 19.2-42.666667 42.666667l0 42.666667c0 23.466667 19.2 42.666667 42.666667 42.666667l85.333333 0 0 277.333333c0 12.8 8.533333 21.333333 21.333333 21.333333s21.333333-8.533333 21.333333-21.333333l0-34.133333 49.066667 49.066667c4.266667 4.266667 8.533333 6.4 14.933333 6.4 12.8 0 21.333333-8.533333 21.333333-21.333333L298.666667 682.666667l426.666667 0 0 277.333333c0 12.8 8.533333 21.333333 21.333333 21.333333 6.4 0 10.666667-2.133333 14.933333-6.4l49.066667-49.066667L810.666667 960c0 12.8 8.533333 21.333333 21.333333 21.333333s21.333333-8.533333 21.333333-21.333333L853.333333 682.666667l85.333333 0c23.466667 0 42.666667-19.2 42.666667-42.666667l0-42.666667C981.333333 573.866667 962.133333 554.666667 938.666667 554.666667zM128 128l768 0 0 426.666667L128 554.666667 128 128zM256 908.8 221.866667 874.666667l34.133333-34.133333L256 908.8zM213.333333 823.466667l0-68.266667 34.133333 34.133333L213.333333 823.466667zM256 738.133333l-42.666667-42.666667L213.333333 682.666667l42.666667 0L256 738.133333zM768 908.8l0-68.266667 34.133333 34.133333L768 908.8zM810.666667 823.466667 776.533333 789.333333l34.133333-34.133333L810.666667 823.466667zM810.666667 695.466667l-42.666667 42.666667L768 682.666667l42.666667 0L810.666667 695.466667zM938.666667 640 85.333333 640l0-42.666667 853.333333 0L938.666667 640z" p-id="4471"></path></svg>