<?xml version="1.0" standalone="no"?><!DOCTYPE svg PUBLIC "-//W3C//DTD SVG 1.1//EN" "http://www.w3.org/Graphics/SVG/1.1/DTD/svg11.dtd"><svg t="1522402729398" class="icon" style="" viewBox="0 0 1024 1024" version="1.1" xmlns="http://www.w3.org/2000/svg" p-id="4495" xmlns:xlink="http://www.w3.org/1999/xlink" width="200" height="200"><defs><style type="text/css"></style></defs><path d="M735.5 959h-447C165.3 959 65 858.7 65 735.5v-447C65 165.3 165.3 65 288.5 65h447C858.7 65 959 165.3 959 288.5v447C959 858.7 858.7 959 735.5 959z m-447-812.7c-78.4 0-142.2 63.8-142.2 142.2v447c0 78.4 63.8 142.2 142.2 142.2h447c78.4 0 142.2-63.8 142.2-142.2v-447c0-78.4-63.8-142.2-142.2-142.2h-447z" p-id="4496"></path><path d="M763.1 703.8l-40.9-41.2c11.7-18.8 18.5-41 18.5-64.8 0-67.9-55.2-122.9-123.3-122.9S494 530 494 597.8c0 67.9 55.2 122.9 123.3 122.9 25.7 0 49.5-7.8 69.2-21.2l40.2 40.5c4.7 4.7 11.1 7.5 18.2 7.5 14.2 0 25.7-11.4 25.7-25.6 0-7-2.9-13.4-7.5-18.1z m-145.8-21c-47.1 0-85.2-38-85.2-84.9 0-46.9 38.1-84.9 85.2-84.9s85.2 38 85.2 84.9c0 46.8-38.1 84.9-85.2 84.9zM494 456.6c122.8 0 208.4-31 208.4-69.2v-41.6c0-38.3-85.6-69.2-208.4-69.2s-194.5 31-194.5 69.2v41.6c0 38.2 71.8 69.2 194.5 69.2z m-29.6 173.2c-84.3-3.1-129.2-29.9-155-55.5-6.6 6.5-9.8 13.5-9.8 20.8v55.4c0 38.3 71.8 69.2 194.5 69.2 12.3 0 24.2-0.3 36-1-31.6-22.6-58.5-49.3-65.7-88.9z m1.9-35.4c0-36.6 13.2-70.2 34.9-96.4h-7.9c-99.5 0-155.6-20.4-184-48.5-6.6 6.5-9.8 13.5-9.8 20.8v55.4c0 35.3 61.1 64.4 166.8 68.7z" p-id="4497"></path></svg>