<?xml version="1.0" standalone="no"?><!DOCTYPE svg PUBLIC "-//W3C//DTD SVG 1.1//EN" "http://www.w3.org/Graphics/SVG/1.1/DTD/svg11.dtd"><svg t="1516263297187" class="icon" style="" viewBox="0 0 1024 1024" version="1.1" xmlns="http://www.w3.org/2000/svg" p-id="6524" xmlns:xlink="http://www.w3.org/1999/xlink" width="200" height="200"><defs><style type="text/css"></style></defs><path d="M363.096157 611.267864l-248.172219 0c-27.38572 0-49.634444 22.248723-49.634444 49.634444l0 248.172219c0 27.411303 22.248723 49.634444 49.634444 49.634444l248.172219 0c27.38572 0 49.633421-22.223141 49.633421-49.634444l0-248.172219C412.730601 633.516588 390.481877 611.267864 363.096157 611.267864L363.096157 611.267864 363.096157 611.267864zM363.096157 884.256282c0 13.694907-11.099802 24.817222-24.817222 24.817222L139.741159 909.073504c-13.71742 0-24.817222-11.122315-24.817222-24.817222L114.923938 685.71953c0-13.716396 11.099802-24.817222 24.817222-24.817222l198.537775 0c13.71742 0 24.817222 11.100826 24.817222 24.817222L363.096157 884.256282 363.096157 884.256282 363.096157 884.256282zM524.408099 611.267864l-24.817222 0c-6.834662 0-12.456706 5.550413-12.456706 12.409634l0 223.354997c0 6.859221 5.622044 12.407588 12.456706 12.407588l24.817222 0c6.835685 0 12.409634-5.548366 12.409634-12.407588L536.817734 623.677499C536.817734 616.818277 531.243785 611.267864 524.408099 611.267864L524.408099 611.267864 524.408099 611.267864zM499.590877 412.731112l24.817222 0c6.835685 0 12.409634-5.550413 12.409634-12.408611L536.817734 77.69964c0-6.859221-5.573949-12.408611-12.409634-12.408611l-24.817222 0c-6.834662 0-12.456706 5.54939-12.456706 12.408611l0 322.622862C487.134171 407.180699 492.756215 412.731112 499.590877 412.731112L499.590877 412.731112 499.590877 412.731112zM114.923938 412.731112l248.172219 0c27.38572 0 49.633421-22.2477 49.633421-49.634444L412.729577 114.900913c0-27.386744-22.2477-49.609884-49.633421-49.609884l-248.172219 0c-27.38572 0-49.634444 22.224164-49.634444 49.609884l0 248.195755C65.289494 390.483412 87.538217 412.731112 114.923938 412.731112L114.923938 412.731112 114.923938 412.731112zM114.923938 139.742694c0-13.69286 11.099802-24.840758 24.817222-24.840758l198.537775 0c13.71742 0 24.817222 11.148921 24.817222 24.840758l0 198.513216c0 13.741979-11.099802 24.840758-24.817222 24.840758L139.741159 363.096668c-13.71742 0-24.817222-11.099802-24.817222-24.840758L114.923938 139.742694 114.923938 139.742694 114.923938 139.742694zM673.358503 685.743066l-24.865317 0c-6.833639 0-12.407588 5.525853-12.407588 12.386098l0 248.172219c0 6.859221 5.573949 12.407588 12.407588 12.407588l24.865317 0c6.78759 0 12.311397-5.548366 12.311397-12.407588l0-248.172219C685.670923 691.269943 680.146093 685.743066 673.358503 685.743066L673.358503 685.743066 673.358503 685.743066zM946.251753 487.159242 77.698105 487.159242c-6.834662 0-12.408611 5.598508-12.408611 12.432147l0 24.817222c0 6.833639 5.573949 12.407588 12.408611 12.407588l868.553649 0c6.883781 0 12.45773-5.573949 12.45773-12.407588L958.709483 499.591389C958.709483 492.756727 953.135534 487.159242 946.251753 487.159242L946.251753 487.159242 946.251753 487.159242zM909.024897 65.291029 660.903843 65.291029c-27.387767 0-49.634444 22.224164-49.634444 49.609884l0 248.195755c0 27.386744 22.246677 49.634444 49.634444 49.634444l248.122077 0c27.482935 0 49.684586-22.2477 49.684586-49.634444L958.710506 114.900913C958.709483 87.515193 936.508855 65.291029 909.024897 65.291029L909.024897 65.291029 909.024897 65.291029zM909.024897 338.25591c0 13.741979-11.098779 24.840758-24.76708 24.840758L685.670923 363.096668c-13.668301 0-24.76708-11.099802-24.76708-24.840758L660.903843 139.742694c0-13.69286 11.098779-24.840758 24.76708-24.840758l198.586894 0c13.668301 0 24.76708 11.148921 24.76708 24.840758L909.024897 338.25591 909.024897 338.25591 909.024897 338.25591zM797.348422 685.743066 772.579295 685.743066c-6.883781 0-12.407588 5.525853-12.407588 12.386098l0 248.172219c0 6.859221 5.523807 12.407588 12.407588 12.407588l24.769127 0c6.883781 0 12.45773-5.548366 12.45773-12.407588l0-248.172219C809.806151 691.269943 804.232203 685.743066 797.348422 685.743066L797.348422 685.743066 797.348422 685.743066zM921.482627 611.267864l-24.769127 0c-6.881734 0-12.455683 5.550413-12.455683 12.409634l0 322.622862c0 6.859221 5.573949 12.407588 12.455683 12.407588l24.769127 0c6.883781 0 12.409634-5.548366 12.409634-12.407588L933.892261 623.677499C933.892261 616.818277 928.366408 611.267864 921.482627 611.267864L921.482627 611.267864 921.482627 611.267864zM921.482627 611.267864" p-id="6525"></path></svg>