<?xml version="1.0" standalone="no"?><!DOCTYPE svg PUBLIC "-//W3C//DTD SVG 1.1//EN" "http://www.w3.org/Graphics/SVG/1.1/DTD/svg11.dtd"><svg t="1517290643813" class="icon" style="" viewBox="0 0 1024 1024" version="1.1" xmlns="http://www.w3.org/2000/svg" p-id="2773" xmlns:xlink="http://www.w3.org/1999/xlink" width="200" height="200"><defs><style type="text/css"></style></defs><path d="M315.269895 221.129306c12.508895 0 24.424272 2.39249 35.744086 7.211239 11.320836 4.78498 21.126156 11.344373 29.471219 19.751856 8.345062 8.372691 14.889105 18.266016 19.647479 29.610388 4.776793 11.379165 7.15598 23.666002 7.15598 36.821627 0 12.576433-2.379187 24.426319-7.15598 35.480073-4.758374 11.089569-11.302417 20.802792-19.647479 29.210275-8.345062 8.371668-18.151405 14.9679-29.471219 19.751856-11.319813 4.783956-23.235191 7.175423-35.744086 7.175423-12.492522 0-24.406876-2.391467-35.726689-7.175423-11.319813-4.783956-21.143553-11.380188-29.489638-19.751856-8.327666-8.407484-14.889105-18.120706-19.647479-29.210275-4.759397-11.053754-7.139607-22.904663-7.139607-35.480073 0-13.155624 2.38021-25.442462 7.139607-36.821627 4.757351-11.343349 11.319813-21.237697 19.647479-29.610388 8.346085-8.407484 18.169825-14.966876 29.489638-19.751856C290.863019 223.520773 302.777373 221.129306 315.269895 221.129306L315.269895 221.129306zM906.663106 63.078641c14.295588 0 26.66122 5.218862 37.0795 15.72924 10.417257 10.473539 15.626909 22.578228 15.626909 36.349883L959.369515 909.067364c0 13.772678-5.210675 25.877367-15.626909 36.350906-10.419304 10.473539-22.784936 15.728216-37.0795 15.728216L117.83729 961.146487c-14.276145 0-26.497491-5.254677-36.627199-15.728216-10.112312-10.473539-15.177678-22.578228-15.177678-36.350906L66.032414 115.157763c0-13.771655 5.065366-25.876344 15.177678-36.349883 10.129708-10.510378 22.351054-15.72924 36.627199-15.72924L906.663106 63.078641 906.663106 63.078641zM879.861694 195.97644c0-14.9679-5.066389-27.688619-15.178701-38.162158-10.130731-10.473539-22.641673-15.692401-37.527708-15.692401L197.348182 142.121881c-14.889105 0-27.380604 5.218862-37.511335 15.692401-10.130731 10.473539-15.196097 23.194258-15.196097 38.162158l0 316.1351c0 17.36039 4.326539 33.813107 12.960173 49.39806 8.634658 15.547091 20.999266 29.499871 37.078477 41.74987 16.077164 12.286838 35.437094 21.998013 58.059324 29.175483 22.64065 7.210215 47.947012 11.089569 75.940576 11.7056 39.890522 0.577145 72.209602-4.820796 96.92347-16.163121 24.711821-11.383258 46.163389-25.76992 64.313771-43.128263 18.168802-17.361413 35.150568-36.204573 50.92074-56.574506 15.791661-20.36584 34.556027-39.501666 56.296167-57.478086 21.719674-17.97642 48.523133-33.089629 80.392982-45.338604 31.870872-12.284791 73.109088-18.736736 123.724883-19.315928 8.939603-0.61603 14.150278-0.760317 15.627932-0.434905 1.497097 0.289596 3.425006 0.434905 5.805216 0.434905 2.396583 0 7.30129 0.144286 14.743796 0.434905 7.442506 0.326435 21.595854 0.144286 42.433438-0.434905L879.861694 195.97644 879.861694 195.97644zM879.861694 195.97644" p-id="2774"></path></svg>