<?xml version="1.0" standalone="no"?><!DOCTYPE svg PUBLIC "-//W3C//DTD SVG 1.1//EN" "http://www.w3.org/Graphics/SVG/1.1/DTD/svg11.dtd"><svg t="1517197470230" class="icon" style="" viewBox="0 0 1069 1024" version="1.1" xmlns="http://www.w3.org/2000/svg" p-id="1870" xmlns:xlink="http://www.w3.org/1999/xlink" width="208.7890625" height="200"><defs><style type="text/css"></style></defs><path d="M725.01248 464.2304c-12.47232-14.68928-34.59072-16.4608-49.27488-3.93728l-211.16416 179.90656-67.06176-70.77888c-13.30176-14.02368-35.36384-14.57664-49.43872-1.32608a34.944 34.944 0 0 0-1.3312 49.4336l89.89696 94.88384a34.92864 34.92864 0 0 0 48.05632 2.54976l236.38528-201.40544c14.68416-12.57984 16.45568-34.64192 3.93216-49.32608zM294.31296 298.07104c6.53824 7.70048 16.23552 12.7488 27.15648 12.7488a35.86048 35.86048 0 0 0 25.27232-10.368 35.20512 35.20512 0 0 0 10.36288-25.05216V125.75744c0-7.31648-2.21696-14.1312-6.09792-19.78368a32.68608 32.68608 0 0 0-4.3776-5.26336 35.072 35.072 0 0 0-16.45568-9.14944 34.54464 34.54464 0 0 0-8.704-1.21856c-19.84 0-35.6352 15.85152-35.6352 35.41504v149.59104c0 8.69888 3.26656 16.512 8.47872 22.72256zM749.06624 310.65088a35.56864 35.56864 0 0 0 25.27744-10.36288 35.2256 35.2256 0 0 0 10.35776-25.05216V125.75744c0-2.43712-0.27648-4.82304-0.7168-7.14752a35.51744 35.51744 0 0 0-34.92352-28.2624c-19.84512 0-35.6352 15.85152-35.6352 35.41504v149.4784c0 9.7536 3.98848 18.62144 10.4192 25.05216a35.97824 35.97824 0 0 0 25.22112 10.35776z" p-id="1871"></path><path d="M996.70016 272.128c-1.60256-41.28768-21.8368-74.43456-56.97536-93.33248-21.7856-11.69408-42.73664-13.30176-60.35456-13.30176h-27.48928a34.9696 34.9696 0 1 0 0 69.94432c30.15168 0 73.2672-3.49184 74.9312 38.07744 0 168.43264 0.44544 336.86528 0.384 505.29792v45.94688c0 21.05856-16.23552 37.6832-35.80416 37.6832H179.08736c-20.34176 0-35.80416-17.95584-35.80416-37.6832V280.71936v-6.92736c0-26.77248 22.39488-40.45824 46.88896-40.45824h27.4944a34.9696 34.9696 0 0 0 34.9696-34.97472c0-19.34336-15.68256-34.91328-34.9696-34.91328h-27.4944c-50.048 0-100.98176 29.5424-113.9456 80.3072-2.44224 9.53344-4.15744 20.22912-4.15744 30.09536v550.912c0 38.912 21.39136 76.65664 55.92064 95.77472a105.02656 105.02656 0 0 0 51.15904 13.184h712.30464c59.19232 0 107.07968-50.37568 107.07968-108.95872l-1.83296-552.63232z" p-id="1872"></path><path d="M427.88864 235.55072h214.76352a34.9696 34.9696 0 1 0 0-69.94432H427.88864a34.97472 34.97472 0 1 0 0 69.94432z" p-id="1873"></path></svg>