<?xml version="1.0" standalone="no"?><!DOCTYPE svg PUBLIC "-//W3C//DTD SVG 1.1//EN" "http://www.w3.org/Graphics/SVG/1.1/DTD/svg11.dtd"><svg t="1517362203957" class="icon" style="" viewBox="0 0 1024 1024" version="1.1" xmlns="http://www.w3.org/2000/svg" p-id="2110" xmlns:xlink="http://www.w3.org/1999/xlink" width="200" height="200"><defs><style type="text/css"></style></defs><path d="M417.2 217h501.6c22.4 0 40.5-18.6 40.5-41s-18.1-41-40.5-41H417.2c-22.4 0-40.5 18.6-40.5 41s18.1 41 40.5 41zM918.8 460H417.2c-22.4 0-40.5 18.1-40.5 40.5s18.1 40.5 40.5 40.5h501.6c22.4 0 40.5-18.1 40.5-40.5S941.2 460 918.8 460zM918.8 801H416.2c-22.4 0-40.5 18.6-40.5 41s18.1 41 40.5 41h502.6c22.4 0 40.5-18.6 40.5-41s-18.1-41-40.5-41zM233.8 135H107.1c-22.4 0-40.5 18.6-40.5 41s18.1 41 40.5 41h126.7c22.4 0 40.5-18.6 40.5-41s-18.1-41-40.5-41zM233.8 477H107.1c-22.4 0-40.5 18.1-40.5 40.5S84.7 558 107.1 558h126.7c22.4 0 40.5-18.1 40.5-40.5S256.2 477 233.8 477zM233.8 801H105.1c-22.4 0-40.5 18.6-40.5 41s18.1 41 40.5 41h128.7c22.4 0 40.5-18.6 40.5-41s-18.1-41-40.5-41z" p-id="2111"></path></svg>