<?xml version="1.0" standalone="no"?><!DOCTYPE svg PUBLIC "-//W3C//DTD SVG 1.1//EN" "http://www.w3.org/Graphics/SVG/1.1/DTD/svg11.dtd"><svg t="1517362400092" class="icon" style="" viewBox="0 0 1024 1024" version="1.1" xmlns="http://www.w3.org/2000/svg" p-id="4077" xmlns:xlink="http://www.w3.org/1999/xlink" width="200" height="200"><defs><style type="text/css"></style></defs><path d="M286.077016 289.647843c-26.568099 0-48.182372 21.600971-48.182372 48.151673 0 26.568099 21.614274 48.183396 48.182372 48.183396 26.569122 0 48.184419-21.615297 48.184419-48.183396C334.262458 311.24779 312.646138 289.647843 286.077016 289.647843zM419.834392 289.647843c-26.568099 0-48.183396 21.600971-48.183396 48.151673 0 26.568099 21.615297 48.183396 48.183396 48.183396 26.550703 0 48.151673-21.615297 48.151673-48.183396C467.986065 311.24779 446.385095 289.647843 419.834392 289.647843zM553.591769 294.00815c-26.569122 0-48.184419 21.61632-48.184419 48.184419 0 26.550703 21.615297 48.15065 48.184419 48.15065 26.549679 0 48.15065-21.599947 48.15065-48.15065C601.742419 315.623447 580.142471 294.00815 553.591769 294.00815zM869.579513 381.572462 773.79703 381.572462 773.79703 177.442318c0-57.651025-46.90324-104.554264-104.556311-104.554264L170.396343 72.888054c-57.633628 0-104.522542 46.902216-104.522542 104.554264l0 336.572572c0 57.043181 45.9004 103.563704 102.696963 104.539938l-1.116427 150.198837L384.239709 619.011222l0 118.800733c0 48.761564 39.670511 88.432075 88.431052 88.432075l224.653573 0 179.914626 124.307144-0.884137-124.563994c45.605687-3.473101 81.653695-41.693588 81.653695-88.175225L958.008518 470.001467C958.008518 421.240927 918.340053 381.572462 869.579513 381.572462zM368.913653 567.336306l-149.515269 103.256712 0.766456-103.256712-49.767474 0c-29.384237 0-53.290717-23.919782-53.290717-53.321416L117.10665 177.442318c0-29.402657 23.905456-53.323463 53.290717-53.323463l498.844376 0c29.401634 0 53.322439 23.920806 53.322439 53.323463l0 336.572572c0 29.401634-23.920806 53.321416-53.322439 53.321416L368.913653 567.336306zM906.777717 737.811955c0 20.511149-16.687054 37.198204-37.198204 37.198204l-44.843324 0 0.565888 77.382415-112.014166-77.382415L472.670761 775.010159c-20.511149 0-37.199227-16.687054-37.199227-37.198204L435.471534 618.571201l233.768161 0c57.653071 0 104.556311-46.904263 104.556311-104.556311l0-81.210603 95.783507 0c20.511149 0 37.198204 16.687054 37.198204 37.19718L906.777717 737.811955z" p-id="4078"></path></svg>